<svg width="24" height="22" viewBox="0 0 24 22" fill="none" xmlns="http://www.w3.org/2000/svg">
<path d="M12 4.72201L11.1815 3.55588C10.7814 2.98591 10.3349 2.50793 9.85213 2.12329L9.85208 2.12325C8.90649 1.36973 7.85593 1 6.70441 1C5.13725 1 3.70284 1.64216 2.64903 2.81974L12 4.72201ZM12 4.72201L12.8185 3.55592M12 4.72201L12.8185 3.55592M12.8185 3.55592C13.2187 2.98571 13.6652 2.50787 14.1478 2.12319C15.0936 1.36969 16.1441 1 17.2956 1C18.8628 1 20.297 1.64217 21.3509 2.81983C22.3971 3.98912 23 5.61825 23 7.43131C23 9.24458 22.3567 10.9445 20.8406 12.8292L20.8406 12.8292C19.4539 14.5533 17.4414 16.3246 15.0018 18.4666L15.0017 18.4666L14.9798 18.4859C14.1596 19.2062 13.2266 20.0256 12.258 20.8983L12.2575 20.8987C12.1826 20.9663 12.091 21 12 21C11.9091 21 11.8176 20.9665 11.7422 20.8984L11.7415 20.8978C10.7657 20.0188 9.82656 19.194 9.00223 18.4702L8.99883 18.4672L8.99878 18.4671M12.8185 3.55592L8.99878 18.4671M8.99878 18.4671C6.55883 16.3248 4.54624 14.5533 3.15959 12.8294C1.64343 10.9444 1 9.24452 1 7.4315C1 5.61826 1.6029 3.98913 2.64894 2.81983L8.99878 18.4671Z" stroke="#3A3A3A" stroke-width="2"/>
</svg>
